:FULLY-SPECIFIED
:FORCE-ALL-JOINTS-BE-3DOF
:DEGREES
611
root 5.63993 16.6574 -3.73617 -0.0866578 55.3206 -7.82025
lfemur -18.1428 25.5218 -21.8094
ltibia 40.8411 0 0
lfoot -32.4918 23.9157 0
ltoes 15.5342 0 0
rfemur -51.8072 -17.4956 27.5031
rtibia 58.5211 0 0
rfoot 8.92411 30.6557 0
rtoes -8.9367 0 0
lowerback 3.52048 -3.09471 -5.23264
upperback 0.313011 -4.30763 1.13834
thorax -1.17933 -2.12846 4.2779
lowerneck -8.12104 -9.71875 -0.90597
upperneck 14.6956 -13.8414 5.08202
head 6.23888 -6.37049 0.636562
lclavicle 2.3836e-14 1.00683e-14 0
lhumerus -22.1454 -40.3173 92.0589
lradius 56.2876 0 0
lwrist 22.0681 0 0
lhand -12.2214 0.0312629 0
lfingers 7.12502 0 0
lthumb 13.8438 29.555 0
rclavicle 2.3836e-14 1.00683e-14 0
rhumerus 22.9622 4.4368 -72.3749
rradius 120.442 0 0
rwrist -58.3899 0 0
rhand -28.0114 -24.0033 0
rfingers 7.12502 0 0
rthumb -1.39693 -773.977 0
612
root 5.64418 16.6829 -3.76518 0.536511 53.1654 -7.25263
lfemur -17.9441 25.8313 -22.2639
ltibia 40.2713 0 0
lfoot -33.1362 24.7326 0
ltoes 17.9258 0 0
rfemur -52.2403 -17.7424 27.1725
rtibia 60.773 0 0
rfoot 9.32162 30.907 0
rtoes -9.34825 0 0
lowerback 3.44265 -3.22806 -5.0077
upperback 0.18299 -4.47568 1.15191
thorax -1.26839 -2.20882 4.17097
lowerneck -8.35175 -9.42376 -0.675298
upperneck 14.8527 -13.4158 4.63748
head 6.26964 -6.17885 0.488691
lclavicle 2.39564e-14 1.28946e-14 0
lhumerus -22.1038 -41.1246 92.6503
lradius 56.8312 0 0
lwrist 21.7552 0 0
lhand -12.0477 -0.149868 0
lfingers 7.12502 0 0
lthumb 14.0113 29.3624 0
rclavicle 2.39564e-14 1.28946e-14 0
rhumerus 22.744 3.81184 -72.2073
rradius 118.854 0 0
rwrist -58.7067 0 0
rhand -28.2653 -24.4221 0
rfingers 7.12502 0 0
rthumb -1.64217 -774.394 0
613
root 5.65268 16.7099 -3.79463 1.08088 50.9105 -6.76908
lfemur -17.7075 26.075 -22.7477
ltibia 39.6479 0 0
lfoot -33.8438 25.5398 0
ltoes 20.4937 0 0
rfemur -52.6487 -17.9662 26.7083
rtibia 63.2245 0 0
rfoot 9.73309 30.9783 0
rtoes -9.93311 0 0
lowerback 3.34749 -3.36437 -4.75928
upperback 0.0422533 -4.64607 1.1752
thorax -1.36005 -2.29033 4.06046
lowerneck -8.59519 -9.11255 -0.434185
upperneck 15.0154 -12.9637 4.15122
head 6.30082 -5.97687 0.328051
lclavicle 2.40314e-14 1.57864e-14 0
lhumerus -22.0748 -41.9746 93.2939
lradius 57.448 0 0
lwrist 21.4259 0 0
lhand -11.8981 -0.371856 0
lfingers 7.12502 0 0
lthumb 14.1554 29.1299 0
rclavicle 2.40314e-14 1.57864e-14 0
rhumerus 22.447 3.19884 -72.0024
rradius 117.122 0 0
rwrist -58.9472 0 0
rhand -28.5514 -24.8756 0
rfingers 7.12502 0 0
rthumb -1.91844 -774.845 0
614
root 5.66471 16.7372 -3.82236 1.55161 48.6267 -6.37577
lfemur -17.4385 26.2209 -23.2256
ltibia 38.9932 0 0
lfoot -34.5611 26.2672 0
ltoes 23.0868 0 0
rfemur -52.9931 -18.1572 26.1334
rtibia 65.7089 0 0
rfoot 10.1252 30.8129 0
rtoes -10.6306 0 0
lowerback 3.23115 -3.49549 -4.49842
upperback -0.106631 -4.80829 1.20995
thorax -1.44949 -2.36783 3.95364
lowerneck -8.84123 -8.79978 -0.192972
upperneck 15.1714 -12.5077 3.65276
head 6.33014 -5.7741 0.164036
lclavicle 2.39998e-14 1.83993e-14 0
lhumerus -22.0686 -42.8538 93.9833
lradius 58.1267 0 0
lwrist 21.1001 0 0
lhand -11.7749 -0.617918 0
lfingers 7.12502 0 0
lthumb 14.274 28.8744 0
rclavicle 2.39998e-14 1.83993e-14 0
rhumerus 22.031 2.63293 -71.7489
rradius 115.304 0 0
rwrist -59.0798 0 0
rhand -28.8552 -25.3449 0
rfingers 7.12502 0 0
rthumb -2.21183 -775.311 0
615
root 5.67882 16.7636 -3.84598 1.97975 46.3767 -6.05817
lfemur -17.1451 26.2398 -23.6551
ltibia 38.3326 0 0
lfoot -35.2195 26.8365 0
ltoes 25.5255 0 0
rfemur -53.2314 -18.3099 25.4895
rtibia 68.0183 0 0
rfoot 10.4584 30.3591 0
rtoes -11.3436 0 0
lowerback 3.08865 -3.61263 -4.23847
upperback -0.261666 -4.95104 1.25766
thorax -1.53161 -2.43578 3.85874
lowerneck -9.07924 -8.50137 0.037751
upperneck 15.3068 -12.0727 3.17865
head 6.35502 -5.58094 0.0080642
lclavicle 2.37845e-14 2.0306e-14 0
lhumerus -22.097 -43.7567 94.7159
lradius 58.8544 0 0
lwrist 20.8008 0 0
lhand -11.6742 -0.863545 0
lfingers 7.12502 0 0
lthumb 14.371 28.6205 0
rclavicle 2.37845e-14 2.0306e-14 0
rhumerus 21.4449 2.1478 -71.4316
rradius 113.465 0 0
rwrist -59.0765 0 0
rhand -29.1582 -25.8088 0
rfingers 7.12502 0 0
rthumb -2.5045 -775.773 0
616
root 5.69281 16.7877 -3.8628 2.42221 44.2157 -5.78102
lfemur -16.8378 26.1046 -23.9859
ltibia 37.694 0 0
lfoot -35.7357 27.1606 0
ltoes 27.6013 0 0
rfemur -53.3188 -18.4237 24.8362
rtibia 69.9038 0 0
rfoot 10.687 29.5704 0
rtoes -11.9381 0 0
lowerback 2.91384 -3.70636 -3.99503
upperback -0.421423 -5.06231 1.31966
thorax -1.60107 -2.48822 3.78492
lowerneck -9.29819 -8.23447 0.247144
upperneck 15.4054 -11.6863 2.77245
head 6.37261 -5.40857 -0.126422
lclavicle 2.3292e-14 2.09967e-14 0
lhumerus -22.1734 -44.6851 95.4935
lradius 59.6168 0 0
lwrist 20.5538 0 0
lhand -11.5861 -1.07651 0
lfingers 7.12502 0 0
lthumb 14.4559 28.4003 0
rclavicle 2.3292e-14 2.09967e-14 0
rhumerus 20.6263 1.77572 -71.0317
rradius 111.676 0 0
rwrist -58.9135 0 0
rhand -29.438 -26.2439 0
rfingers 7.12502 0 0
rthumb -2.77471 -776.205 0
617
root 5.7038 16.8082 -3.86989 2.96174 42.1909 -5.48836
lfemur -16.5296 25.7905 -24.1604
ltibia 37.1083 0 0
lfoot -36.0114 27.1441 0
ltoes 29.0772 0 0
rfemur -53.2075 -18.5019 24.2519
rtibia 71.0755 0 0
rfoot 10.7592 28.4055 0
rtoes -12.244 0 0
lowerback 2.69943 -3.76662 -3.786
upperback -0.585043 -5.12934 1.39705
thorax -1.65224 -2.51879 3.74232
lowerneck -9.48653 -8.01751 0.424114
upperneck 15.4494 -11.379 2.48474
head 6.37978 -5.26899 -0.223958
lclavicle 2.2413e-14 1.98785e-14 0
lhumerus -22.3131 -45.6486 96.3219
lradius 60.3983 0 0
lwrist 20.388 0 0
lhand -11.4946 -1.21687 0
lfingers 7.12502 0 0
lthumb 14.544 28.2533 0
rclavicle 2.2413e-14 1.98785e-14 0
rhumerus 19.5016 1.54748 -70.5266
rradius 110.013 0 0
rwrist -58.5705 0 0
rhand -29.668 -26.6242 0
rfingers 7.12502 0 0
rthumb -2.99681 -776.583 0
